HIERARCHY
ROOT Joint1
{
	OFFSET 0.000000 0.000000 0.000000
	CHANNELS 6 Xposition Yposition Zposition Xrotation Yrotation Zrotation
	JOINT Joint2
	{
		OFFSET -0.000000 0.000000 1.456275
		CHANNELS 6 Xposition Yposition Zposition Xrotation Yrotation Zrotation
		JOINT Joint3
		{
			OFFSET -0.000000 0.000002 1.471446
			CHANNELS 6 Xposition Yposition Zposition Xrotation Yrotation Zrotation
			JOINT Joint4
			{
				OFFSET 0.625745 0.000000 0.917755
				CHANNELS 6 Xposition Yposition Zposition Xrotation Yrotation Zrotation
				JOINT Joint5
				{
					OFFSET -0.629534 0.000001 0.940221
					CHANNELS 6 Xposition Yposition Zposition Xrotation Yrotation Zrotation
					JOINT Joint6
					{
						OFFSET -0.000001 0.113772 1.960660
						CHANNELS 6 Xposition Yposition Zposition Xrotation Yrotation Zrotation
						JOINT Joint7
						{
							OFFSET -0.669733 -0.113771 0.388340
							CHANNELS 6 Xposition Yposition Zposition Xrotation Yrotation Zrotation
							End Site
							{
								OFFSET 0.005509 0.005509 0.438980
							}
						}
					}
				}
			}
		}
	}
}
MOTION
Frames: 9
Frame Time: 0.041667
0.000000 0.000000 0.000000 -0.000000 1.019410 37.857546 -0.000000 0.000000 1.456275 -0.000000 6.457716 0.000000 -0.000000 0.000002 1.471445 -0.000002 -1.133465 -58.196319 0.625744 0.000000 0.917755 0.000003 136.066193 -0.000003 -0.629534 0.000001 0.940221 -0.000001 1.709734 59.228293 -0.000001 0.113773 1.960661 -88.303855 96.174459 0.000020 -0.669733 -0.113771 0.388340 0.288326 2.767614 57.366895 
0.000000 0.000000 0.000000 -0.000000 1.019410 38.703462 -0.000000 0.000000 1.456275 0.000001 7.606737 -0.000002 -0.000000 0.000002 1.471446 -0.000002 -1.133464 -59.495565 0.625745 0.000000 0.917755 0.000004 136.089620 -0.000001 -0.629534 0.000001 0.940220 0.000001 1.709737 60.551594 -0.000001 0.113772 1.960661 -88.303841 96.312894 0.000024 -0.669733 -0.113771 0.388341 0.294465 2.737495 55.634527 
0.000000 0.000000 0.000000 -0.000000 1.019410 39.843058 -0.000000 -0.000000 1.456275 0.000000 9.154678 0.000001 -0.000000 0.000002 1.471446 -0.000003 -1.133466 -61.245883 0.625745 0.000000 0.917755 0.000004 136.121176 0.000001 -0.629534 0.000001 0.940221 -0.000001 1.709739 62.334321 -0.000001 0.113772 1.960660 -88.303855 96.499385 -0.000009 -0.669733 -0.113771 0.388340 0.301285 2.696649 53.300802 
0.000000 0.000000 0.000000 -0.000000 1.019410 41.123080 -0.000000 0.000000 1.456275 0.000000 10.893357 -0.000004 -0.000000 0.000002 1.471446 -0.000003 -1.133465 -63.211878 0.625744 0.000000 0.917755 0.000007 136.156597 0.000002 -0.629534 0.000001 0.940221 -0.000003 1.709741 64.336714 -0.000001 0.113772 1.960660 -88.303855 96.708860 0.000011 -0.669733 -0.113771 0.388339 0.306949 2.650484 50.679607 
0.000000 0.000000 0.000000 -0.000000 1.019410 42.356206 -0.000000 0.000000 1.456275 0.000000 12.568338 -0.000002 -0.000000 0.000002 1.471446 -0.000002 -1.133464 -65.105841 0.625745 0.000000 0.917755 0.000006 136.190721 -0.000000 -0.629534 0.000001 0.940221 -0.000001 1.709739 66.265758 -0.000001 0.113772 1.960660 -88.303875 96.910658 0.000006 -0.669733 -0.113771 0.388340 0.310408 2.605812 48.154524 
0.000000 0.000000 0.000000 -0.000000 1.019410 43.542702 -0.000000 -0.000000 1.456275 0.000000 14.179974 -0.000001 -0.000000 0.000002 1.471446 -0.000004 -1.133463 -66.928184 0.625744 0.000000 0.917756 0.000007 136.223574 -0.000000 -0.629534 0.000001 0.940221 0.000000 1.709733 68.121841 -0.000001 0.113772 1.960661 -88.303868 97.104820 0.000011 -0.669733 -0.113771 0.388340 0.311866 2.562722 45.725046 
0.000000 0.000000 0.000000 -0.000000 1.019410 44.729454 -0.000000 -0.000000 1.456275 0.000001 15.791959 0.000000 -0.000000 0.000002 1.471445 -0.000002 -1.133464 -68.750922 0.625745 0.000000 0.917755 0.000004 136.256427 0.000001 -0.629534 0.000001 0.940221 -0.000001 1.709738 69.978327 -0.000001 0.113772 1.960660 -88.303862 97.299030 0.000000 -0.669733 -0.113771 0.388340 0.311497 2.519601 43.295118 
0.000000 0.000000 0.000000 -0.000000 1.019410 45.962331 -0.000000 -0.000000 1.456275 0.000001 17.466590 -0.000003 -0.000000 0.000002 1.471446 -0.000003 -1.133467 -70.644496 0.625745 0.000000 0.917755 0.000008 136.290565 0.000002 -0.629534 0.000001 0.940220 -0.000001 1.709735 71.906968 -0.000001 0.113772 1.960661 -88.303875 97.500786 0.000008 -0.669733 -0.113771 0.388340 0.309178 2.474864 40.770830 
0.000000 0.000000 0.000000 -0.000000 1.019410 47.241065 -0.000000 0.000000 1.456275 0.000001 19.203526 0.000000 -0.000000 0.000002 1.471446 -0.000003 -1.133462 -72.608517 0.625745 0.000000 0.917755 0.000007 136.325959 -0.000003 -0.629533 0.000001 0.940221 0.000001 1.709738 73.907360 -0.000001 0.113772 1.960660 -88.303855 97.710050 0.000018 -0.669733 -0.113771 0.388340 0.304688 2.428619 38.152720 
